<?xml version="1.0"?>
<svg width="685.52679" height="730.88562" xmlns="http://www.w3.org/2000/svg" xmlns:svg="http://www.w3.org/2000/svg" version="1.1">

 <metadata id="metadata5793">image/svg+xml</metadata>
 <g class="layer">
  <title>Layer 1</title>
  <rect fill="#fabd2f" height="179.73" id="svg_1" stroke="#000000" width="167.57" x="190.15" y="258.3"/>
  <g id="layer1" transform="translate(-140.09375,-172.63364)">
   <path d="m617.76,218.33l-79.47,0.75l0,57.62l-58,-49.4l-297.34,256.31l35.91,41l57.65,-42.28l3.85,374.25c83.32,0.28 166.64,0.54 249.97,0.78l0,-158.35l104.84,0l8.53,158.66c18.16,0.05 36.31,0.1 54.47,0.16c1.91,-135.6 5.12,-371.66 5.12,-371.66l43.57,35.88l35.9,-37.16l-163.56,-139.25l1.53,-0.91c0,0 -1.99,-84.01 -2.97,-126.4zm-138.75,221.62c0.2,24.86 0.63,74.56 0.63,74.56c0,0 -46.95,0.41 -59.35,0.5l-4.46,-73.18l23.15,-1.13l40.03,-0.75zm-71.03,2.25l2.91,72.75l-62.13,-0.47l-1.78,-69.31l61,-2.97zm-58.9,85.19l62.31,0.97l2.78,69.34l-63.31,0l-1.78,-70.31zm72.06,1.12l58.62,2.22c0,0 0.35,44.65 0.53,66.97l-54.9,0l-4.25,-69.19z" fill="#000000" fill-rule="evenodd" id="path3077"/>
  </g>
 </g>
</svg>